<?xml version="1.0" encoding="utf-8"?>
<!-- Generator: Adobe Illustrator 16.0.0, SVG Export Plug-In . SVG Version: 6.00 Build 0)  -->
<!DOCTYPE svg PUBLIC "-//W3C//DTD SVG 1.1//EN" "http://www.w3.org/Graphics/SVG/1.1/DTD/svg11.dtd">
<svg version="1.1" xmlns="http://www.w3.org/2000/svg" xmlns:xlink="http://www.w3.org/1999/xlink" x="0px" y="0px"
	 width="149.792px" height="91.975px" viewBox="0 0 149.792 91.975" enable-background="new 0 0 149.792 91.975"
	 xml:space="preserve">
<g id="Слой_1">
	<g>
		<polygon fill="#007EC5" points="14.7,47.689 20.474,47.689 13.046,68.257 7.376,68.257 -0.001,47.689 6.038,47.689 10.321,62.858 
					"/>
		<path fill="#007EC5" d="M35.571,48.105c1.436,0.643,2.621,1.657,3.555,3.043c0.842,1.223,1.389,2.639,1.641,4.252
			c0.143,0.945,0.201,2.307,0.176,4.082h-14.98c0.084,2.064,0.801,3.509,2.15,4.341c0.822,0.514,1.811,0.771,2.965,0.771
			c1.227,0,2.221-0.313,2.986-0.943c0.418-0.338,0.787-0.811,1.107-1.414h5.49c-0.145,1.22-0.809,2.458-1.994,3.717
			c-1.842,2-4.42,3-7.738,3c-2.736,0-5.15-0.844-7.244-2.531c-2.094-1.686-3.139-4.432-3.139-8.232c0-3.564,0.945-6.295,2.834-8.197
			c1.889-1.903,4.34-2.852,7.355-2.852C32.524,47.142,34.138,47.462,35.571,48.105 M27.526,52.752
			c-0.76,0.783-1.238,1.844-1.434,3.184h9.268c-0.1-1.428-0.576-2.512-1.434-3.25s-1.922-1.109-3.189-1.109
			C29.356,51.576,28.286,51.969,27.526,52.752"/>
		<path fill="#007EC5" d="M55.018,47.207c0.068,0.008,0.223,0.018,0.461,0.029v5.51c-0.34-0.037-0.641-0.063-0.906-0.076
			c-0.264-0.012-0.479-0.018-0.641-0.018c-2.165,0-3.618,0.705-4.36,2.113c-0.414,0.793-0.623,2.012-0.623,3.662v9.83h-5.416V47.689
			h5.133v3.586c0.83-1.371,1.555-2.311,2.17-2.813c1.006-0.844,2.317-1.264,3.927-1.264C54.863,47.199,54.947,47.201,55.018,47.207"
			/>
		<path fill="#007EC5" d="M57.768,51.709v-3.833h2.867v-5.734h5.32v5.734h3.341v3.833h-3.341v10.868
			c0,0.842,0.107,1.367,0.319,1.576c0.215,0.207,0.871,0.311,1.965,0.311c0.162,0,0.336-0.004,0.52-0.01
			c0.182-0.006,0.359-0.016,0.537-0.029v4.022l-2.549,0.094c-2.541,0.088-4.275-0.354-5.207-1.322
			c-0.603-0.615-0.905-1.564-0.905-2.848V51.709H57.768z"/>
		<path fill="#007EC5" d="M80.502,55.746c1-0.125,1.715-0.283,2.147-0.471c0.773-0.326,1.16-0.838,1.16-1.529
			c0-0.842-0.297-1.424-0.889-1.744c-0.593-0.322-1.464-0.482-2.611-0.482c-1.289,0-2.201,0.314-2.736,0.943
			c-0.383,0.465-0.637,1.094-0.766,1.887h-5.189c0.113-1.799,0.619-3.275,1.518-4.434c1.428-1.813,3.879-2.717,7.353-2.717
			c2.262,0,4.269,0.445,6.025,1.34c1.758,0.893,2.635,2.578,2.635,5.057v9.435c0,0.652,0.014,1.445,0.039,2.377
			c0.037,0.705,0.145,1.182,0.32,1.434s0.439,0.459,0.793,0.623v0.793h-5.85c-0.164-0.416-0.277-0.805-0.339-1.17
			c-0.064-0.365-0.113-0.781-0.152-1.246c-0.746,0.805-1.607,1.49-2.58,2.057c-1.165,0.666-2.482,1-3.949,1
			c-1.873,0-3.42-0.531-4.641-1.594s-1.832-2.571-1.832-4.52c0-2.528,0.982-4.358,2.947-5.489c1.076-0.617,2.662-1.057,4.752-1.322
			L80.502,55.746z M83.789,58.256c-0.344,0.215-0.691,0.387-1.042,0.52c-0.35,0.133-0.832,0.256-1.444,0.367l-1.225,0.229
			c-1.146,0.201-1.972,0.445-2.472,0.734c-0.846,0.49-1.27,1.251-1.27,2.283c0,0.917,0.258,1.582,0.775,1.99
			c0.518,0.41,1.146,0.616,1.889,0.616c1.173,0,2.255-0.34,3.246-1.022c0.992-0.678,1.505-1.917,1.542-3.716V58.256z"/>
		<path fill="#F7901E" d="M30.899,91.425h-2.365V71.002h2.365v3.077h0.078c0.605-1.184,1.473-2.084,2.604-2.702
			c1.129-0.617,2.365-0.926,3.705-0.926c0.947,0,1.748,0.104,2.406,0.315c0.656,0.211,1.215,0.492,1.674,0.848
			c0.461,0.355,0.842,0.768,1.145,1.242c0.301,0.473,0.559,0.985,0.77,1.538c0.682-1.341,1.596-2.333,2.74-2.978
			c1.143-0.645,2.449-0.965,3.924-0.965c1.391,0,2.503,0.229,3.331,0.69c0.828,0.459,1.465,1.064,1.912,1.813
			c0.447,0.75,0.742,1.612,0.887,2.585s0.217,1.971,0.217,2.996v12.891h-2.365V77.312c0-1.473-0.309-2.629-0.926-3.471
			c-0.62-0.84-1.771-1.262-3.452-1.262c-0.867,0-1.701,0.191-2.502,0.572c-0.803,0.383-1.506,0.967-2.111,1.757
			c-0.264,0.342-0.479,0.742-0.65,1.201c-0.17,0.461-0.309,0.939-0.414,1.439c-0.105,0.498-0.176,0.998-0.217,1.498
			c-0.039,0.5-0.059,0.959-0.059,1.379v11h-2.365V77.312c0-1.473-0.311-2.629-0.928-3.471c-0.617-0.84-1.768-1.262-3.449-1.262
			c-0.867,0-1.701,0.191-2.504,0.572c-0.801,0.383-1.504,0.967-2.109,1.757c-0.262,0.342-0.479,0.742-0.65,1.201
			c-0.17,0.461-0.309,0.939-0.414,1.439c-0.104,0.498-0.176,0.998-0.217,1.498c-0.039,0.5-0.059,0.959-0.059,1.379V91.425z"/>
		<path fill="#F7901E" d="M61.1,81.767c0,1.104,0.145,2.148,0.433,3.135c0.289,0.984,0.717,1.84,1.281,2.561
			c0.566,0.725,1.281,1.301,2.15,1.736c0.864,0.434,1.865,0.65,2.996,0.65c1.55,0,2.876-0.408,3.98-1.223
			c1.105-0.814,1.84-1.971,2.209-3.469h2.641c-0.289,0.973-0.67,1.873-1.143,2.699c-0.473,0.83-1.064,1.553-1.775,2.17
			c-0.709,0.617-1.551,1.098-2.521,1.438c-0.973,0.342-2.103,0.514-3.39,0.514c-1.633,0-3.037-0.277-4.219-0.828
			c-1.184-0.553-2.156-1.307-2.917-2.268c-0.762-0.959-1.329-2.09-1.696-3.391c-0.369-1.301-0.553-2.699-0.553-4.199
			c0-1.498,0.219-2.904,0.65-4.217c0.435-1.314,1.052-2.465,1.854-3.452c0.802-0.987,1.78-1.76,2.937-2.327
			c1.155-0.564,2.471-0.848,3.943-0.848c2.81,0,5.019,0.967,6.623,2.899c1.604,1.933,2.391,4.739,2.365,8.419H61.1z M74.424,79.794
			c0-0.998-0.139-1.938-0.414-2.818s-0.684-1.643-1.223-2.287c-0.537-0.643-1.215-1.157-2.029-1.538
			c-0.816-0.381-1.748-0.572-2.798-0.572c-1.053,0-1.979,0.197-2.78,0.592c-0.802,0.395-1.485,0.92-2.05,1.577
			c-0.566,0.658-1.02,1.42-1.361,2.287s-0.563,1.789-0.669,2.76H74.424z"/>
		<path fill="#F7901E" d="M95.098,63.036h2.367v28.389h-2.367v-3.588H95.02c-0.342,0.684-0.783,1.281-1.322,1.793
			c-0.537,0.514-1.129,0.941-1.773,1.283s-1.307,0.604-1.991,0.787c-0.684,0.186-1.354,0.277-2.01,0.277
			c-1.656,0-3.064-0.277-4.218-0.828c-1.158-0.551-2.109-1.307-2.859-2.266c-0.748-0.961-1.295-2.098-1.636-3.412
			c-0.342-1.314-0.512-2.721-0.512-4.219c0-1.42,0.184-2.785,0.551-4.1c0.369-1.314,0.927-2.465,1.675-3.45
			c0.75-0.987,1.696-1.774,2.84-2.368c1.144-0.59,2.49-0.887,4.04-0.887c1.446,0,2.833,0.323,4.161,0.967
			c1.326,0.645,2.371,1.598,3.133,2.858V63.036z M95.098,81.136c0-1.156-0.158-2.254-0.473-3.293
			c-0.314-1.037-0.77-1.945-1.359-2.721c-0.592-0.773-1.314-1.393-2.17-1.853c-0.854-0.461-1.821-0.691-2.897-0.691
			c-1.236,0-2.3,0.244-3.193,0.73c-0.894,0.487-1.63,1.149-2.208,1.993c-0.578,0.84-1,1.818-1.262,2.936
			c-0.262,1.117-0.37,2.32-0.315,3.607c0,1.289,0.178,2.426,0.532,3.41c0.355,0.986,0.848,1.82,1.478,2.504
			c0.631,0.684,1.367,1.201,2.208,1.557c0.84,0.355,1.761,0.533,2.759,0.533c1.104,0,2.09-0.225,2.958-0.67
			c0.867-0.447,1.59-1.059,2.168-1.834s1.018-1.695,1.32-2.76C94.945,83.521,95.098,82.37,95.098,81.136"/>
		<path fill="#F7901E" d="M101.086,63.036h2.602v3.51h-2.602V63.036z M101.206,71.002h2.365v20.423h-2.365V71.002z"/>
		<path fill="#F7901E" d="M116.504,79.519c0.447-0.051,0.979-0.131,1.596-0.236c0.617-0.104,1.123-0.25,1.52-0.434
			c0.393-0.184,0.637-0.492,0.729-0.928c0.092-0.432,0.137-0.834,0.137-1.201c0-1.209-0.387-2.201-1.162-2.977
			s-2.084-1.165-3.924-1.165c-0.814,0-1.563,0.074-2.246,0.217c-0.684,0.146-1.281,0.395-1.795,0.75
			c-0.512,0.355-0.932,0.829-1.262,1.418c-0.328,0.594-0.545,1.336-0.648,2.229h-2.406c0.08-1.209,0.355-2.24,0.828-3.094
			c0.473-0.856,1.084-1.553,1.834-2.09c0.748-0.539,1.615-0.934,2.602-1.184s2.031-0.375,3.133-0.375
			c1.027,0,1.992,0.114,2.898,0.336c0.908,0.225,1.697,0.578,2.367,1.064s1.193,1.137,1.576,1.952
			c0.381,0.815,0.57,1.813,0.57,2.997v11.117c0,0.922,0.164,1.506,0.494,1.756c0.328,0.25,0.992,0.191,1.99-0.178v1.854
			c-0.184,0.053-0.453,0.131-0.809,0.236c-0.354,0.105-0.703,0.158-1.045,0.158c-0.367,0-0.723-0.041-1.063-0.119
			c-0.395-0.053-0.711-0.178-0.947-0.375c-0.236-0.195-0.428-0.434-0.572-0.709s-0.242-0.578-0.295-0.906s-0.08-0.678-0.08-1.045
			c-0.998,1.104-2.141,1.945-3.43,2.523c-1.287,0.578-2.68,0.867-4.178,0.867c-0.895,0-1.754-0.119-2.582-0.355
			s-1.559-0.604-2.189-1.104c-0.631-0.498-1.131-1.111-1.498-1.834s-0.551-1.582-0.551-2.582c0-3.469,2.377-5.52,7.135-6.15
			L116.504,79.519z M120.485,80.702c-0.998,0.42-2.01,0.695-3.035,0.828c-1.025,0.131-2.051,0.236-3.074,0.314
			c-1.814,0.133-3.229,0.539-4.238,1.223c-1.012,0.684-1.518,1.721-1.518,3.115c0,0.629,0.123,1.176,0.375,1.635
			c0.248,0.461,0.576,0.842,0.984,1.143c0.406,0.305,0.879,0.527,1.418,0.672s1.086,0.217,1.639,0.217
			c0.945,0,1.865-0.119,2.758-0.355s1.689-0.598,2.385-1.084c0.697-0.486,1.256-1.104,1.676-1.854
			c0.42-0.748,0.631-1.637,0.631-2.66V80.702z"/>
		<path fill="#007EC5" d="M114.639,0.006c-0.326,0.043-0.516,0.322-0.445,0.957c1.047,11.5,0.508,22.917-3.059,34.123
			c-0.172,0.553,0.125,0.732,0.756,0.662c11.648-1.363,22.965,0.02,34.082,3.066c0.482,0.115,0.736-0.082,0.686-0.545
			c-1.342-11.66,0.018-22.978,3.057-34.122c0.227-0.836-0.076-1.078-0.541-1.049c-11.49,1.068-22.863,0.33-34.102-3.043
			c-0.15-0.043-0.287-0.063-0.408-0.053L114.639,0.006z"/>
		<path fill="#F7901E" d="M93.627,22.437c-0.289,0.156-0.369,0.482-0.078,1.053c5.043,10.39,8.575,21.264,9.196,33.005
			c0.033,0.578,0.375,0.639,0.941,0.352c10.416-5.391,21.49-8.096,32.967-9.176c0.492-0.063,0.66-0.338,0.449-0.752
			c-5.375-10.429-8.104-21.502-9.197-33.001c-0.082-0.861-0.453-0.98-0.877-0.789c-10.373,5.06-21.271,8.388-32.977,9.204
			c-0.156,0.012-0.291,0.041-0.402,0.096L93.627,22.437z"/>
	</g>
</g>
<g id="Слой_1__x28_копия_x29_">
	<g display="none">
		<polygon display="inline" fill="#FFFFFF" points="39.667,77.024 45.441,77.024 38.014,97.592 32.343,97.592 24.967,77.024 
			31.006,77.024 35.29,92.194 		"/>
		<path display="inline" fill="#FFFFFF" d="M60.54,77.44c1.435,0.643,2.62,1.656,3.555,3.043c0.842,1.222,1.388,2.639,1.64,4.252
			c0.144,0.945,0.202,2.306,0.177,4.082H50.929c0.084,2.064,0.801,3.51,2.151,4.341c0.821,0.515,1.81,0.772,2.965,0.772
			c1.226,0,2.221-0.313,2.986-0.943c0.418-0.339,0.787-0.811,1.107-1.415h5.49c-0.145,1.221-0.809,2.46-1.994,3.718
			c-1.842,2-4.421,3-7.738,3c-2.736,0-5.151-0.844-7.244-2.531c-2.094-1.687-3.14-4.432-3.14-8.233c0-3.563,0.945-6.295,2.834-8.197
			c1.89-1.901,4.341-2.852,7.355-2.852C57.493,76.477,59.105,76.798,60.54,77.44 M52.495,82.086
			c-0.76,0.784-1.238,1.845-1.434,3.185h9.267c-0.099-1.428-0.576-2.512-1.434-3.25c-0.857-0.739-1.921-1.109-3.189-1.109
			C54.325,80.911,53.254,81.304,52.495,82.086"/>
		<path display="inline" fill="#FFFFFF" d="M79.983,76.542c0.068,0.008,0.223,0.017,0.462,0.028v5.511
			c-0.34-0.037-0.642-0.063-0.906-0.076c-0.264-0.012-0.479-0.019-0.642-0.019c-2.163,0-3.616,0.705-4.358,2.114
			c-0.415,0.792-0.623,2.012-0.623,3.661v9.831H68.5V77.023h5.132v3.586c0.83-1.371,1.554-2.31,2.17-2.812
			c1.006-0.844,2.315-1.265,3.925-1.265C79.829,76.533,79.914,76.536,79.983,76.542"/>
		<path display="inline" fill="#FFFFFF" d="M82.733,81.043v-3.831h2.868v-5.735h5.321v5.735h3.341v3.831h-3.341v10.869
			c0,0.843,0.107,1.368,0.32,1.576c0.214,0.207,0.869,0.311,1.963,0.311c0.163,0,0.336-0.003,0.52-0.009
			c0.182-0.006,0.36-0.016,0.538-0.029v4.021l-2.549,0.094c-2.541,0.088-4.276-0.353-5.208-1.321
			c-0.604-0.615-0.905-1.565-0.905-2.849V81.043H82.733z"/>
		<path display="inline" fill="#FFFFFF" d="M105.469,85.081c1-0.125,1.715-0.283,2.147-0.471c0.772-0.327,1.159-0.838,1.159-1.529
			c0-0.843-0.297-1.425-0.889-1.745c-0.594-0.321-1.465-0.481-2.611-0.481c-1.288,0-2.2,0.314-2.735,0.943
			c-0.383,0.465-0.638,1.094-0.767,1.887h-5.188c0.113-1.799,0.619-3.276,1.517-4.435c1.428-1.812,3.879-2.717,7.354-2.717
			c2.262,0,4.27,0.446,6.025,1.34c1.758,0.894,2.635,2.579,2.635,5.058v9.435c0,0.653,0.014,1.446,0.039,2.378
			c0.037,0.704,0.145,1.182,0.32,1.434s0.439,0.459,0.793,0.623v0.792h-5.85c-0.164-0.415-0.277-0.805-0.34-1.17
			c-0.064-0.364-0.113-0.78-0.152-1.246c-0.746,0.806-1.607,1.491-2.58,2.058c-1.164,0.666-2.481,1-3.949,1
			c-1.872,0-3.419-0.531-4.641-1.594c-1.221-1.063-1.831-2.57-1.831-4.52c0-2.529,0.982-4.359,2.946-5.491
			c1.077-0.616,2.662-1.057,4.752-1.321L105.469,85.081z M108.756,87.591c-0.344,0.215-0.691,0.387-1.043,0.52
			c-0.35,0.132-0.832,0.255-1.443,0.367l-1.225,0.228c-1.146,0.201-1.972,0.446-2.472,0.735c-0.847,0.49-1.271,1.252-1.271,2.283
			c0,0.918,0.258,1.582,0.776,1.99c0.517,0.409,1.146,0.614,1.888,0.614c1.174,0,2.256-0.34,3.247-1.021
			c0.991-0.679,1.505-1.918,1.542-3.717V87.591z"/>
		<path display="inline" fill="#FFFFFF" d="M55.868,120.759h-2.365v-20.422h2.365v3.075h0.078c0.604-1.183,1.473-2.083,2.603-2.701
			c1.13-0.616,2.366-0.926,3.706-0.926c0.946,0,1.748,0.104,2.405,0.315c0.656,0.211,1.215,0.491,1.675,0.848
			c0.46,0.355,0.841,0.768,1.144,1.242c0.302,0.473,0.559,0.984,0.77,1.537c0.683-1.34,1.596-2.332,2.739-2.978
			c1.144-0.644,2.45-0.965,3.924-0.965c1.392,0,2.503,0.229,3.331,0.69c0.827,0.459,1.465,1.063,1.911,1.813
			c0.447,0.749,0.742,1.611,0.888,2.583c0.144,0.974,0.217,1.971,0.217,2.996v12.892h-2.365v-14.113c0-1.473-0.31-2.629-0.927-3.471
			c-0.618-0.841-1.769-1.262-3.45-1.262c-0.867,0-1.702,0.191-2.503,0.572c-0.802,0.382-1.505,0.967-2.11,1.755
			c-0.263,0.342-0.479,0.743-0.649,1.202c-0.171,0.461-0.31,0.939-0.414,1.438c-0.105,0.499-0.177,0.999-0.217,1.498
			c-0.039,0.5-0.06,0.96-0.06,1.38v11h-2.365v-14.113c0-1.473-0.31-2.629-0.927-3.471c-0.618-0.841-1.768-1.262-3.45-1.262
			c-0.866,0-1.701,0.191-2.503,0.572c-0.802,0.382-1.505,0.967-2.109,1.755c-0.263,0.342-0.479,0.743-0.65,1.202
			c-0.171,0.461-0.309,0.939-0.414,1.438c-0.104,0.499-0.177,0.999-0.217,1.498c-0.039,0.5-0.059,0.96-0.059,1.38V120.759z"/>
		<path display="inline" fill="#FFFFFF" d="M86.066,111.101c0,1.104,0.144,2.148,0.434,3.134c0.289,0.985,0.716,1.84,1.281,2.562
			c0.565,0.725,1.281,1.301,2.149,1.735c0.866,0.435,1.865,0.651,2.996,0.651c1.551,0,2.878-0.408,3.981-1.223
			c1.104-0.814,1.84-1.972,2.208-3.47h2.641c-0.289,0.974-0.67,1.873-1.143,2.7c-0.473,0.829-1.063,1.552-1.774,2.169
			c-0.709,0.618-1.551,1.099-2.522,1.438c-0.973,0.342-2.104,0.514-3.391,0.514c-1.631,0-3.036-0.277-4.219-0.828
			c-1.183-0.553-2.155-1.307-2.918-2.268c-0.762-0.959-1.327-2.09-1.694-3.391c-0.369-1.301-0.553-2.699-0.553-4.199
			c0-1.498,0.218-2.904,0.65-4.218c0.434-1.313,1.051-2.465,1.853-3.45c0.803-0.986,1.781-1.761,2.938-2.326
			c1.156-0.564,2.47-0.848,3.942-0.848c2.812,0,5.02,0.967,6.624,2.898c1.603,1.932,2.39,4.738,2.364,8.418H86.066z M99.392,109.128
			c0-0.998-0.139-1.938-0.414-2.818c-0.276-0.881-0.685-1.643-1.223-2.287c-0.538-0.643-1.216-1.156-2.03-1.537
			c-0.815-0.381-1.748-0.572-2.799-0.572c-1.052,0-1.979,0.197-2.779,0.592c-0.802,0.395-1.486,0.92-2.05,1.576
			c-0.566,0.658-1.02,1.42-1.361,2.287s-0.565,1.788-0.67,2.76H99.392z"/>
		<path display="inline" fill="#FFFFFF" d="M120.065,92.372h2.367v28.387h-2.367v-3.588h-0.078
			c-0.342,0.684-0.783,1.281-1.322,1.793c-0.537,0.514-1.129,0.94-1.773,1.283c-0.645,0.342-1.307,0.604-1.99,0.787
			c-0.684,0.185-1.354,0.276-2.01,0.276c-1.656,0-3.064-0.276-4.219-0.827c-1.158-0.552-2.109-1.308-2.859-2.267
			c-0.748-0.96-1.295-2.097-1.636-3.411c-0.342-1.314-0.513-2.721-0.513-4.219c0-1.42,0.184-2.785,0.552-4.101
			c0.368-1.313,0.927-2.464,1.676-3.448c0.749-0.986,1.695-1.774,2.839-2.367c1.145-0.59,2.49-0.887,4.041-0.887
			c1.445,0,2.832,0.322,4.16,0.967c1.326,0.644,2.371,1.597,3.133,2.857V92.372z M120.065,110.469c0-1.156-0.158-2.253-0.473-3.292
			c-0.314-1.038-0.77-1.945-1.359-2.721c-0.592-0.774-1.314-1.393-2.17-1.853c-0.854-0.46-1.82-0.69-2.896-0.69
			c-1.236,0-2.301,0.244-3.193,0.729c-0.895,0.487-1.631,1.149-2.209,1.992c-0.578,0.841-0.999,1.819-1.261,2.937
			c-0.263,1.117-0.369,2.319-0.315,3.607c0,1.288,0.178,2.425,0.532,3.41c0.354,0.986,0.847,1.82,1.478,2.504
			s1.367,1.201,2.209,1.557c0.84,0.355,1.762,0.533,2.76,0.533c1.104,0,2.09-0.225,2.957-0.671c0.867-0.447,1.59-1.058,2.168-1.833
			s1.018-1.696,1.32-2.76C119.913,112.854,120.065,111.704,120.065,110.469"/>
		<path display="inline" fill="#FFFFFF" d="M126.053,92.372h2.603v3.51h-2.603V92.372z M126.172,100.337h2.366v20.422h-2.366
			V100.337z"/>
		<path display="inline" fill="#FFFFFF" d="M141.472,108.853c0.447-0.052,0.979-0.131,1.596-0.236
			c0.617-0.104,1.123-0.25,1.52-0.434c0.393-0.184,0.637-0.493,0.729-0.928c0.092-0.432,0.137-0.834,0.137-1.202
			c0-1.208-0.387-2.2-1.162-2.976s-2.084-1.164-3.924-1.164c-0.814,0-1.563,0.073-2.246,0.217c-0.684,0.146-1.281,0.395-1.795,0.75
			c-0.512,0.354-0.932,0.828-1.262,1.418c-0.328,0.593-0.545,1.336-0.648,2.229h-2.406c0.08-1.209,0.355-2.24,0.828-3.095
			s1.084-1.552,1.834-2.089c0.748-0.539,1.615-0.934,2.602-1.184s2.031-0.375,3.133-0.375c1.027,0,1.992,0.112,2.898,0.336
			c0.908,0.224,1.697,0.578,2.367,1.064s1.193,1.137,1.576,1.951c0.381,0.814,0.57,1.813,0.57,2.996v11.117
			c0,0.922,0.164,1.506,0.494,1.756c0.328,0.25,0.992,0.19,1.99-0.178v1.854c-0.184,0.053-0.453,0.131-0.809,0.236
			c-0.354,0.104-0.703,0.158-1.045,0.158c-0.367,0-0.723-0.041-1.063-0.119c-0.395-0.053-0.711-0.178-0.947-0.375
			c-0.236-0.196-0.428-0.434-0.572-0.709c-0.145-0.276-0.242-0.578-0.295-0.906c-0.053-0.329-0.08-0.678-0.08-1.045
			c-0.998,1.104-2.141,1.945-3.43,2.522c-1.287,0.578-2.68,0.867-4.178,0.867c-0.895,0-1.754-0.118-2.582-0.354
			s-1.559-0.604-2.189-1.104s-1.131-1.111-1.498-1.834s-0.551-1.583-0.551-2.582c0-3.469,2.377-5.52,7.135-6.15L141.472,108.853z
			 M145.453,110.036c-0.998,0.42-2.01,0.695-3.035,0.827s-2.051,0.237-3.074,0.315c-1.814,0.132-3.229,0.539-4.238,1.222
			c-1.012,0.685-1.518,1.722-1.518,3.115c0,0.63,0.123,1.176,0.375,1.636c0.248,0.46,0.576,0.842,0.984,1.143
			c0.406,0.304,0.879,0.526,1.418,0.672c0.539,0.144,1.086,0.217,1.639,0.217c0.945,0,1.865-0.119,2.758-0.355
			s1.689-0.598,2.385-1.084c0.697-0.486,1.256-1.104,1.676-1.854s0.631-1.637,0.631-2.661V110.036z"/>
		<path display="inline" fill="#FFFFFF" d="M139.607,29.343c-0.326,0.043-0.516,0.322-0.445,0.958
			c1.047,11.499,0.508,22.918-3.059,34.12c-0.172,0.552,0.125,0.731,0.756,0.661c11.648-1.361,22.965,0.021,34.082,3.066
			c0.482,0.116,0.736-0.082,0.686-0.545c-1.342-11.657,0.018-22.976,3.057-34.12c0.227-0.835-0.076-1.077-0.541-1.048
			c-11.49,1.067-22.863,0.33-34.102-3.043c-0.15-0.044-0.287-0.063-0.408-0.053L139.607,29.343z"/>
		<path display="inline" fill="#FFFFFF" d="M118.594,51.775c-0.289,0.155-0.369,0.482-0.078,1.053
			c5.043,10.387,8.575,21.26,9.196,33c0.033,0.578,0.375,0.64,0.941,0.353c10.416-5.392,21.49-8.097,32.967-9.177
			c0.492-0.062,0.66-0.337,0.449-0.751c-5.375-10.431-8.104-21.5-9.197-32.999c-0.082-0.861-0.453-0.981-0.877-0.789
			c-10.373,5.06-21.271,8.389-32.978,9.204c-0.156,0.012-0.291,0.042-0.402,0.096L118.594,51.775z"/>
	</g>
</g>
</svg>
